# xmcd
#
# Track frame offsets:
#	150
#	20392
#	41062
#	58052
#	77657
#	111447
#	129813
#	147490
#	165703
#	189202
#
# Disc length: 2795 seconds
#
# Revision: 0
# Processed by: cddbd v1.5.1PL2 Copyright (c) Steve Scherf et al.
# Submitted via: EasyCDDAExtractor 8.1.4.1
#
DISCID=820ae90a
DTITLE=For Absent Friends - The Big Room
DYEAR=2001
DGENRE=Symphonic Rock
TTITLE0=We can not ...
TTITLE1=Silly love song
TTITLE2=Giving up
TTITLE3=Cameroon
TTITLE4=The big room
TTITLE5=If love
TTITLE6=Little things
TTITLE7=Higher level
TTITLE8=Don't hurt me
TTITLE9=The one
EXTD=
EXTT0=
EXTT1=
EXTT2=
EXTT3=
EXTT4=
EXTT5=
EXTT6=
EXTT7=
EXTT8=
EXTT9=
PLAYORDER=
